# Blender v2.79 (sub 0) OBJ File: 'ktane_template.blend'
# www.blender.org
o Cube.001_Cube.006
v -0.050000 0.010355 -0.079357
v -0.050000 0.010356 0.020643
v -0.000000 0.010355 -0.079357
v 0.000000 0.010356 0.020643
v -0.049000 0.014375 -0.078357
v -0.050000 0.013375 -0.079357
v -0.049259 0.014341 -0.078616
v -0.049500 0.014241 -0.078857
v -0.049707 0.014082 -0.079064
v -0.049866 0.013875 -0.079223
v -0.049966 0.013634 -0.079323
v -0.050000 0.013375 0.020643
v -0.049000 0.014375 0.019643
v -0.049966 0.013634 0.020609
v -0.049866 0.013875 0.020509
v -0.049707 0.014082 0.020350
v -0.049500 0.014241 0.020143
v -0.049259 0.014341 0.019902
v -0.001000 0.014375 -0.078357
v -0.000000 0.013375 -0.079357
v -0.000741 0.014341 -0.078616
v -0.000500 0.014241 -0.078857
v -0.000293 0.014082 -0.079064
v -0.000134 0.013875 -0.079223
v -0.000034 0.013634 -0.079323
v -0.001000 0.014375 0.019643
v 0.000000 0.013375 0.020643
v -0.000741 0.014341 0.019902
v -0.000500 0.014241 0.020143
v -0.000293 0.014082 0.020350
v -0.000134 0.013875 0.020509
v -0.000034 0.013634 0.020609
vt 0.000000 0.000000
vt 0.000000 0.000000
vt 0.000000 0.000000
vt 0.000000 0.000000
vt 0.000000 0.000000
vt 0.000000 0.000000
vt 0.000000 0.000000
vt 0.000000 0.000000
vt 0.745000 0.598215
vt 0.255000 0.598215
vt 0.253706 0.599509
vt 0.746294 0.599509
vt 0.252500 0.600715
vt 0.747500 0.600715
vt 0.251464 0.601750
vt 0.748536 0.601750
vt 0.748536 0.525285
vt 0.251464 0.525285
vt 0.250670 0.526320
vt 0.749330 0.526320
vt 0.250170 0.527526
vt 0.749830 0.527526
vt 0.250000 0.528820
vt 0.750000 0.528820
vt 0.745000 0.358215
vt 0.746294 0.356921
vt 0.747500 0.355715
vt 0.748536 0.354679
vt 0.354679 0.525285
vt 0.601750 0.525285
vt 0.602545 0.526320
vt 0.353885 0.526320
vt 0.603044 0.527526
vt 0.353385 0.527526
vt 0.603215 0.528820
vt 0.353215 0.528820
vt 0.255000 0.358215
vt 0.253706 0.356921
vt 0.252500 0.355715
vt 0.251464 0.354679
vt 0.601750 0.525285
vt 0.354679 0.525285
vt 0.353885 0.526320
vt 0.602545 0.526320
vt 0.353385 0.527526
vt 0.603044 0.527526
vt 0.353215 0.528820
vt 0.603215 0.528820
vt 0.750000 0.528820
vt 0.250000 0.528820
vt 0.250170 0.527526
vt 0.749830 0.527526
vt 0.250670 0.526320
vt 0.749330 0.526320
vt 0.251464 0.525285
vt 0.748536 0.525285
vn 0.0000 -1.0000 0.0000
vn 0.0000 -0.0000 -1.0000
vn 0.0000 0.0000 1.0000
vn 1.0000 -0.0000 -0.0000
vn -1.0000 0.0000 0.0000
vn -0.1305 0.9914 -0.0000
vn -0.3827 0.9239 -0.0000
vn -0.6088 0.7934 -0.0000
vn -0.7933 0.6088 -0.0000
vn -0.9239 0.3827 -0.0000
vn -0.9914 0.1305 -0.0000
vn 0.0000 0.9914 0.1305
vn 0.0000 0.9239 0.3827
vn 0.0000 0.7934 0.6088
vn 0.0000 0.6088 0.7933
vn 0.0000 0.3827 0.9239
vn 0.0000 0.1305 0.9914
vn 0.0000 0.9914 -0.1305
vn 0.0000 0.9239 -0.3827
vn 0.0000 0.7933 -0.6088
vn 0.0000 0.6088 -0.7933
vn 0.0000 0.3827 -0.9239
vn 0.0000 0.1305 -0.9914
vn 0.9914 0.1305 -0.0000
vn 0.9239 0.3827 -0.0000
vn 0.7934 0.6088 -0.0000
vn 0.6088 0.7934 -0.0000
vn 0.3827 0.9239 -0.0000
vn 0.1305 0.9914 -0.0000
vn 0.0000 1.0000 -0.0000
s off
f 4/1/1 2/2/1 1/3/1 3/4/1
f 20/5/2 3/4/2 1/3/2 6/6/2
f 12/7/3 2/2/3 4/1/3 27/8/3
f 3/4/4 20/5/4 27/8/4 4/1/4
f 6/6/5 1/3/5 2/2/5 12/7/5
f 13/9/6 5/10/6 7/11/6 18/12/6
f 18/12/7 7/11/7 8/13/7 17/14/7
f 17/14/8 8/13/8 9/15/8 16/16/8
f 16/17/9 9/18/9 10/19/9 15/20/9
f 15/20/10 10/19/10 11/21/10 14/22/10
f 14/22/11 11/21/11 6/23/11 12/24/11
f 26/25/12 13/9/12 18/12/12 28/26/12
f 28/26/13 18/12/13 17/14/13 29/27/13
f 29/27/14 17/14/14 16/16/14 30/28/14
f 30/29/15 16/30/15 15/31/15 31/32/15
f 31/32/16 15/31/16 14/33/16 32/34/16
f 32/34/17 14/33/17 12/35/17 27/36/17
f 5/10/18 19/37/18 21/38/18 7/11/18
f 7/11/19 21/38/19 22/39/19 8/13/19
f 8/13/20 22/39/20 23/40/20 9/15/20
f 9/41/21 23/42/21 24/43/21 10/44/21
f 10/44/22 24/43/22 25/45/22 11/46/22
f 11/46/23 25/45/23 20/47/23 6/48/23
f 27/49/24 20/50/24 25/51/24 32/52/24
f 32/52/25 25/51/25 24/53/25 31/54/25
f 31/54/26 24/53/26 23/55/26 30/56/26
f 30/28/27 23/40/27 22/39/27 29/27/27
f 29/27/28 22/39/28 21/38/28 28/26/28
f 28/26/29 21/38/29 19/37/29 26/25/29
f 5/10/30 13/9/30 26/25/30 19/37/30
