# Blender v2.79 (sub 0) OBJ File: ''
# www.blender.org
v 0.017500 -0.004290 0.000954
v 0.017500 0.045710 0.000954
v -0.017500 -0.004290 0.000954
v -0.017500 0.045710 0.000954
v -0.035000 -0.004290 -0.029357
v -0.035000 0.045710 -0.029357
v -0.017500 -0.004290 -0.059668
v -0.017500 0.045710 -0.059668
v 0.017500 -0.004290 -0.059668
v 0.017500 0.045710 -0.059668
v 0.035000 -0.004290 -0.029357
v 0.035000 0.045710 -0.029357
vt 0.500000 0.103551
vt 0.500000 1.103551
vt 0.933013 1.103551
vt 0.933013 0.103551
vt 0.603215 0.103551
vt 0.603215 1.103551
vt 0.103215 1.103551
vt 0.103215 0.103551
vt 0.933013 0.103551
vt 0.933013 1.103551
vt 0.500000 1.103551
vt 0.500000 0.103551
vt 0.066987 1.103551
vt 0.066987 0.103551
vt 0.933013 0.603215
vt 0.500000 0.853215
vt 0.066987 0.603215
vt 0.066987 0.103215
vt 0.500000 -0.146785
vt 0.933013 0.103215
vt 0.103215 0.103551
vt 0.103215 1.103551
vt 0.603215 1.103551
vt 0.603215 0.103551
vt 0.066987 0.103551
vt 0.066987 1.103551
vt 0.500000 0.853215
vt 0.933013 0.603215
vt 0.933013 0.103215
vt 0.500000 -0.146785
vt 0.066987 0.103215
vt 0.066987 0.603215
vn 0.0000 0.0000 1.0000
vn -0.8660 0.0000 0.5000
vn -0.8660 0.0000 -0.5000
vn 0.0000 0.0000 -1.0000
vn 0.0000 1.0000 -0.0000
vn 0.8660 0.0000 -0.5000
vn 0.8660 0.0000 0.5000
vn 0.0000 -1.0000 0.0000
s off
f 1/1/1 2/2/1 4/3/1 3/4/1
f 3/5/2 4/6/2 6/7/2 5/8/2
f 5/9/3 6/10/3 8/11/3 7/12/3
f 7/12/4 8/11/4 10/13/4 9/14/4
f 4/15/5 2/16/5 12/17/5 10/18/5 8/19/5 6/20/5
f 9/21/6 10/22/6 12/23/6 11/24/6
f 11/25/7 12/26/7 2/2/7 1/1/7
f 1/27/8 3/28/8 5/29/8 7/30/8 9/31/8 11/32/8
