# Blender v2.79 (sub 0) OBJ File: ''
# www.blender.org
v 0.000000 -0.004290 0.005643
v 0.000000 0.045710 0.005643
v -0.024749 -0.004290 -0.004608
v -0.024749 0.045710 -0.004608
v -0.035000 -0.004290 -0.029357
v -0.035000 0.045710 -0.029357
v -0.024749 -0.004290 -0.054106
v -0.024749 0.045710 -0.054106
v 0.000000 -0.004290 -0.064357
v 0.000000 0.045710 -0.064357
v 0.024749 -0.004290 -0.054106
v 0.024749 0.045710 -0.054106
v 0.035000 -0.004290 -0.029357
v 0.035000 0.045710 -0.029357
v 0.024749 -0.004290 -0.004608
v 0.024749 0.045710 -0.004608
vt 0.500000 0.103551
vt 0.500000 1.103551
vt 0.853553 1.103551
vt 0.853553 0.103551
vt 0.706768 0.103551
vt 0.706768 1.103551
vt 0.353215 1.103551
vt 0.353215 0.103551
vt -0.000339 1.103551
vt -0.000339 0.103551
vt 0.853553 0.103551
vt 0.853553 1.103551
vt 0.500000 1.103551
vt 0.500000 0.103551
vt 0.146447 1.103551
vt 0.146447 0.103551
vt 0.999661 0.103551
vt 0.999661 1.103551
vt 1.353215 1.103551
vt 1.353215 0.103551
vt 0.853553 0.706768
vt 0.500000 0.853215
vt 0.146447 0.706768
vt 0.000000 0.353215
vt 0.146447 -0.000339
vt 0.500000 -0.146785
vt 0.853553 -0.000339
vt 1.000000 0.353215
vt 0.353215 0.103551
vt 0.353215 1.103551
vt 0.706768 1.103551
vt 0.706768 0.103551
vt 0.146447 0.103551
vt 0.146447 1.103551
vt 0.500000 0.853215
vt 0.853553 0.706768
vt 1.000000 0.353215
vt 0.853553 -0.000339
vt 0.500000 -0.146785
vt 0.146447 -0.000339
vt 0.000000 0.353215
vt 0.146447 0.706768
vn -0.3827 0.0000 0.9239
vn -0.9239 0.0000 0.3827
vn -0.9239 0.0000 -0.3827
vn -0.3827 0.0000 -0.9239
vn 0.3827 0.0000 -0.9239
vn 0.9239 0.0000 -0.3827
vn 0.0000 1.0000 -0.0000
vn 0.9239 0.0000 0.3827
vn 0.3827 0.0000 0.9239
vn 0.0000 -1.0000 0.0000
s off
f 1/1/1 2/2/1 4/3/1 3/4/1
f 3/5/2 4/6/2 6/7/2 5/8/2
f 5/8/3 6/7/3 8/9/3 7/10/3
f 7/11/4 8/12/4 10/13/4 9/14/4
f 9/14/5 10/13/5 12/15/5 11/16/5
f 11/17/6 12/18/6 14/19/6 13/20/6
f 4/21/7 2/22/7 16/23/7 14/24/7 12/25/7 10/26/7 8/27/7 6/28/7
f 13/29/8 14/30/8 16/31/8 15/32/8
f 15/33/9 16/34/9 2/2/9 1/1/9
f 1/35/10 3/36/10 5/37/10 7/38/10 9/39/10 11/40/10 13/41/10 15/42/10
