# Blender v2.79 (sub 0) OBJ File: 'ktane_template.blend'
# www.blender.org
o Cube.002_Cube.003
v 0.045000 0.031249 -0.074357
v 0.013500 0.031249 -0.056357
v 0.013500 0.031249 -0.042857
v 0.027000 0.031249 -0.042857
v 0.027000 0.031249 -0.015857
v 0.013500 0.031249 -0.015857
v 0.013500 0.031249 -0.002357
v -0.013500 0.031249 -0.002357
v -0.045000 0.031249 0.015643
v 0.045000 0.031249 0.015643
v -0.045000 0.031249 -0.074357
v -0.013500 0.031249 -0.015857
v -0.027000 0.031249 -0.015857
v -0.027000 0.031249 -0.042857
v -0.013500 0.031249 -0.042857
v -0.013500 0.031249 -0.056357
v -0.046294 0.031079 -0.075651
v -0.046294 0.031079 0.016937
v 0.046294 0.031079 0.016937
v 0.046294 0.031079 -0.075651
v -0.047500 0.030579 -0.076857
v -0.047500 0.030579 0.018143
v 0.047500 0.030579 0.018143
v 0.047500 0.030579 -0.076857
v -0.048536 0.029784 -0.077893
v -0.048536 0.029784 0.019178
v 0.048536 0.029784 0.019178
v 0.048536 0.029784 -0.077893
v -0.049330 0.028749 -0.078687
v -0.049330 0.028749 0.019973
v 0.049330 0.028749 0.019973
v 0.049330 0.028749 -0.078687
v -0.049830 0.027543 -0.079187
v -0.049830 0.027543 0.020473
v 0.049830 0.027543 0.020473
v 0.049830 0.027543 -0.079187
v -0.050000 0.026249 -0.079357
v -0.050000 0.026249 0.020643
v 0.050000 0.026249 0.020643
v 0.050000 0.026249 -0.079357
v -0.050000 0.010172 0.020643
v -0.050000 0.010172 -0.079357
v 0.050000 0.010172 0.020643
v 0.050000 0.010172 -0.079357
v 0.027000 0.010172 -0.042857
v 0.013500 0.010172 -0.042857
v 0.013500 0.010172 -0.056357
v -0.013500 0.010172 -0.056357
v -0.013500 0.010172 -0.042857
v -0.027000 0.010172 -0.042857
v -0.027000 0.010172 -0.015857
v -0.013500 0.010172 -0.015857
v -0.013500 0.010172 -0.002357
v 0.013500 0.010172 -0.002357
v 0.013500 0.010172 -0.015857
v 0.027000 0.010172 -0.015857
vn 0.0000 1.0000 0.0000
vn -0.1305 0.9914 0.0000
vn 0.0000 0.9914 0.1305
vn 0.1305 0.9914 0.0000
vn 0.0000 0.9914 -0.1305
vn -0.3827 0.9239 0.0000
vn 0.0000 0.9239 0.3827
vn 0.3827 0.9239 0.0000
vn 0.0000 0.9239 -0.3827
vn -0.6088 0.7934 0.0000
vn 0.0000 0.7934 0.6088
vn 0.6088 0.7934 0.0000
vn 0.0000 0.7934 -0.6088
vn -0.7934 0.6088 0.0000
vn 0.0000 0.6088 0.7934
vn 0.7934 0.6088 0.0000
vn 0.0000 0.6088 -0.7934
vn -0.9239 0.3827 0.0000
vn 0.0000 0.3827 0.9239
vn 0.9239 0.3827 0.0000
vn 0.0000 0.3827 -0.9239
vn -0.9914 0.1305 0.0000
vn 0.0000 0.1305 0.9914
vn 0.9914 0.1305 0.0000
vn 0.0000 0.1305 -0.9914
vn -1.0000 0.0000 0.0000
vn 0.0000 0.0000 1.0000
vn 1.0000 0.0000 0.0000
vn 0.0000 0.0000 -1.0000
vn 0.0000 -1.0000 0.0000
s off
f 1//1 2//1 3//1 4//1 5//1 6//1 7//1 8//1 9//1 10//1
f 1//1 11//1 9//1 8//1 12//1 13//1 14//1 15//1 16//1 2//1
f 9//2 11//2 17//2 18//2
f 10//3 9//3 18//3 19//3
f 1//4 10//4 19//4 20//4
f 11//5 1//5 20//5 17//5
f 18//6 17//6 21//6 22//6
f 19//7 18//7 22//7 23//7
f 20//8 19//8 23//8 24//8
f 17//9 20//9 24//9 21//9
f 22//10 21//10 25//10 26//10
f 23//11 22//11 26//11 27//11
f 24//12 23//12 27//12 28//12
f 21//13 24//13 28//13 25//13
f 26//14 25//14 29//14 30//14
f 27//15 26//15 30//15 31//15
f 28//16 27//16 31//16 32//16
f 25//17 28//17 32//17 29//17
f 30//18 29//18 33//18 34//18
f 31//19 30//19 34//19 35//19
f 32//20 31//20 35//20 36//20
f 29//21 32//21 36//21 33//21
f 34//22 33//22 37//22 38//22
f 35//23 34//23 38//23 39//23
f 36//24 35//24 39//24 40//24
f 33//25 36//25 40//25 37//25
f 41//26 38//26 37//26 42//26
f 43//27 39//27 38//27 41//27
f 44//28 40//28 39//28 43//28
f 42//29 37//29 40//29 44//29
f 44//30 45//30 46//30 47//30 48//30 49//30 50//30 51//30 41//30 42//30
f 44//30 43//30 41//30 51//30 52//30 53//30 54//30 55//30 56//30 45//30
f 5//26 4//26 45//26 56//26
f 56//29 55//29 6//29 5//29
f 4//27 3//27 46//27 45//27
f 7//26 6//26 55//26 54//26
f 47//26 46//26 3//26 2//26
f 8//29 7//29 54//29 53//29
f 2//27 16//27 48//27 47//27
f 53//28 52//28 12//28 8//28
f 16//28 15//28 49//28 48//28
f 13//29 12//29 52//29 51//29
f 50//27 49//27 15//27 14//27
f 14//28 13//28 51//28 50//28
