# Blender v2.79 (sub 0) OBJ File: ''
# www.blender.org
v 0.045000 0.031249 0.015643
v 0.032043 0.031249 -0.010857
v -0.032043 0.031249 -0.010857
v 0.000000 0.031249 -0.066357
v -0.045000 0.031249 -0.074357
v -0.045000 0.031249 0.015643
v 0.045000 0.031249 -0.074357
v -0.046294 0.031079 -0.075651
v -0.046294 0.031079 0.016937
v 0.046294 0.031079 0.016937
v 0.046294 0.031079 -0.075651
v -0.047500 0.030579 -0.076857
v -0.047500 0.030579 0.018143
v 0.047500 0.030579 0.018143
v 0.047500 0.030579 -0.076857
v -0.048536 0.029784 -0.077893
v -0.048536 0.029784 0.019178
v 0.048536 0.029784 0.019178
v 0.048536 0.029784 -0.077893
v -0.049330 0.028749 -0.078687
v -0.049330 0.028749 0.019973
v 0.049330 0.028749 0.019973
v 0.049330 0.028749 -0.078687
v -0.049830 0.027543 -0.079187
v -0.049830 0.027543 0.020473
v 0.049830 0.027543 0.020473
v 0.049830 0.027543 -0.079187
v -0.050000 0.026249 -0.079357
v -0.050000 0.026249 0.020643
v 0.050000 0.026249 0.020643
v 0.050000 0.026249 -0.079357
v -0.050000 0.010172 0.020643
v -0.050000 0.010172 -0.079357
v 0.050000 0.010172 0.020643
v 0.050000 0.010172 -0.079357
v 0.032043 0.010172 -0.010857
v 0.000000 0.010172 -0.066357
v -0.032043 0.010172 -0.010857
vn 0.0000 1.0000 0.0000
vn -0.1305 0.9914 0.0000
vn 0.0000 0.9914 0.1305
vn 0.1305 0.9914 0.0000
vn 0.0000 0.9914 -0.1305
vn -0.3827 0.9239 0.0000
vn 0.0000 0.9239 0.3827
vn 0.3827 0.9239 0.0000
vn 0.0000 0.9239 -0.3827
vn -0.6088 0.7934 0.0000
vn 0.0000 0.7934 0.6088
vn 0.6088 0.7934 0.0000
vn 0.0000 0.7934 -0.6088
vn -0.7934 0.6088 0.0000
vn 0.0000 0.6088 0.7934
vn 0.7934 0.6088 0.0000
vn 0.0000 0.6088 -0.7934
vn -0.9239 0.3827 0.0000
vn 0.0000 0.3827 0.9239
vn 0.9239 0.3827 0.0000
vn 0.0000 0.3827 -0.9239
vn -0.9914 0.1305 0.0000
vn 0.0000 0.1305 0.9914
vn 0.9914 0.1305 0.0000
vn 0.0000 0.1305 -0.9914
vn -1.0000 0.0000 0.0000
vn 0.0000 0.0000 1.0000
vn 1.0000 0.0000 0.0000
vn 0.0000 0.0000 -1.0000
vn 0.0000 -1.0000 0.0000
vn -0.8660 0.0000 0.5000
vn 0.8660 0.0000 0.5000
s off
f 1//1 2//1 3//1 4//1 5//1 6//1
f 7//1 5//1 4//1 2//1 1//1
f 6//2 5//2 8//2 9//2
f 1//3 6//3 9//3 10//3
f 7//4 1//4 10//4 11//4
f 5//5 7//5 11//5 8//5
f 9//6 8//6 12//6 13//6
f 10//7 9//7 13//7 14//7
f 11//8 10//8 14//8 15//8
f 8//9 11//9 15//9 12//9
f 13//10 12//10 16//10 17//10
f 14//11 13//11 17//11 18//11
f 15//12 14//12 18//12 19//12
f 12//13 15//13 19//13 16//13
f 17//14 16//14 20//14 21//14
f 18//15 17//15 21//15 22//15
f 19//16 18//16 22//16 23//16
f 16//17 19//17 23//17 20//17
f 21//18 20//18 24//18 25//18
f 22//19 21//19 25//19 26//19
f 23//20 22//20 26//20 27//20
f 20//21 23//21 27//21 24//21
f 25//22 24//22 28//22 29//22
f 26//23 25//23 29//23 30//23
f 27//24 26//24 30//24 31//24
f 24//25 27//25 31//25 28//25
f 32//26 29//26 28//26 33//26
f 34//27 30//27 29//27 32//27
f 35//28 31//28 30//28 34//28
f 33//29 28//29 31//29 35//29
f 35//30 34//30 36//30 37//30 38//30 33//30
f 34//30 32//30 33//30 38//30 36//30
f 36//29 38//29 3//29 2//29
f 37//31 36//31 2//31 4//31
f 38//32 37//32 4//32 3//32
